Coordinates
version=1
nRows=4
nColumns=40
inDegrees=yes

Units are S.I. units (second, meters, Newtons, ...)
If the header above contains a line with 'inDegrees', this indicates whether rotational values are in degrees (yes) or radians (no).

endheader
time	pelvis_tilt	pelvis_list	pelvis_rotation	pelvis_tx	pelvis_ty	pelvis_tz	hip_flexion_r	hip_adduction_r	hip_rotation_r	knee_angle_r	knee_angle_r_beta	ankle_angle_r	subtalar_angle_r	mtp_angle_r	hip_flexion_l	hip_adduction_l	hip_rotation_l	knee_angle_l	knee_angle_l_beta	ankle_angle_l	subtalar_angle_l	mtp_angle_l	lumbar_extension	lumbar_bending	lumbar_rotation	arm_flex_r	arm_add_r	arm_rot_r	elbow_flex_r	pro_sup_r	wrist_flex_r	wrist_dev_r	arm_flex_l	arm_add_l	arm_rot_l	elbow_flex_l	pro_sup_l	wrist_flex_l	wrist_dev_l
     18.37500000000000000000	     18.22017835556625442450	     -6.95438232446647575102	    174.81891151636327208507	      0.31450646769447498929	      0.90986981964233637488	     -0.58936436940033098963	     45.97507948031547897472	     -9.99774465447028326537	     -1.08075553910542487834	     30.01901928214541825923	      0.52393072469310220107	      2.72814808606993342011	      0.00000000000000000000	      0.00000000000000000000	     41.81766809888642910664	     -1.19302963051419852469	    -10.26168464974142757740	     28.11239656045077950353	      0.49065388060619524735	      5.52133077490845280977	      0.00000000000000000000	      0.00000000000000000000	    -35.78041535960744568001	     -5.64951862370403024016	     -2.17742218433662682031	     40.72766461954890360175	    -15.21561790765914601309	     49.08150258161703760607	     10.88512723570095985792	      9.95616233210560963585	      0.00000000000000000000	      0.00000000000000000000	     48.96606597259690829560	    -17.99447134361697209215	     53.59101695485984606648	     15.90906017773806269133	     85.12384173449073898610	      0.00000000000000000000	      0.00000000000000000000
     18.37999999999999900524	     18.15008259843934723676	     -6.91906646758196242075	    174.66069021108643255502	      0.31375666707314203707	      0.91023075865784752736	     -0.58990787770850849903	     45.83809001588042519870	     -9.81150003810847692876	     -0.85995071661890565284	     29.96237206685891152347	      0.52294204427426660420	      2.74457373239101354301	      0.00000000000000000000	      0.00000000000000000000	     41.69954106644232894041	     -1.35338142468336020130	    -10.40615045781394343294	     28.18153924708820312617	      0.49186064814169294657	      5.57874446363926335124	      0.00000000000000000000	      0.00000000000000000000	    -35.25810073262980637310	     -5.72995929904987288950	     -2.01573990849230799682	     40.32286375867354166758	    -14.95259653687202927586	     48.49597230285036175701	     10.57204021992144404862	     10.45029342994517129739	      0.00000000000000000000	      0.00000000000000000000	     48.48180162918554714224	    -17.85431695001227936359	     52.91997836016116707469	     15.59809460719387530503	     85.17866552232636934150	      0.00000000000000000000	      0.00000000000000000000
     18.38500000000000156319	     18.02379051945227317333	     -6.99528170738483812130	    174.55941291382615077055	      0.31296784077690892323	      0.91079074376512692002	     -0.59014208712271876145	     45.64900250500492973060	     -9.78224119446627859986	     -0.59907249237337378833	     29.90283576675223642383	      0.52190293981294966219	      2.76456504475161324308	      0.00000000000000000000	      0.00000000000000000000	     41.45151117402735962969	     -1.32094354524804469264	    -10.49556080136569136130	     28.07500681077074133896	      0.49000130636778205240	      5.54416415968428832883	      0.00000000000000000000	      0.00000000000000000000	    -34.82566857147973138353	     -5.85149345059153525028	     -1.98314755550960519770	     39.95031075088098759807	    -14.84181961657835202573	     48.01506419556642413227	     10.42838682243438519492	     11.02367164805432686592	      0.00000000000000000000	      0.00000000000000000000	     47.97720343700329692638	    -17.81148613077035491870	     52.38990223349571806466	     15.45174727757067856260	     85.18514318201583535028	      0.00000000000000000000	      0.00000000000000000000
     18.39000000000000056843	     17.29138862958581412954	     -6.86238069886626966820	    174.73851133034193594540	      0.31123455607312777715	      0.91283467339191382006	     -0.58978772215034869220	     44.54066133065568777738	     -9.96838824273933887810	     -1.01580046233881371442	     29.67045851319517879574	      0.51784719163163728251	      2.83522484329956547811	      0.00000000000000000000	      0.00000000000000000000	     40.35620021184234929024	     -1.11744024200493163868	    -10.25326335559016932564	     27.64121135781794791342	      0.48243014743357565122	      5.52517038632709489576	      0.00000000000000000000	      0.00000000000000000000	    -35.10962066302300144116	     -5.62670587928968313207	     -2.16020478878903832154	     39.40261486647492006341	    -15.30593722900654718444	     49.62964799283494699011	     11.29688876600270575068	      9.12561185287356835261	      0.00000000000000000000	      0.00000000000000000000	     47.64961932335660321769	    -18.02062729797815165966	     53.07694980003742557528	     15.68742860421340346022	     85.51958671095678710117	      0.00000000000000000000	      0.00000000000000000000
